<svg id="Layer_1" enable-background="new 0 0 512 512" height="512" viewBox="0 0 512 512" width="512" xmlns="http://www.w3.org/2000/svg"><path d="m193.551 97c-4.142 0-7.5-3.358-7.5-7.5v-12c0-4.142 3.358-7.5 7.5-7.5s7.5 3.358 7.5 7.5v12c0 4.142-3.358 7.5-7.5 7.5z"/><path d="m318.448 97c-4.143 0-7.5-3.358-7.5-7.5v-12c0-4.142 3.357-7.5 7.5-7.5s7.5 3.358 7.5 7.5v12c0 4.142-3.357 7.5-7.5 7.5z"/><path d="m256 104.144c-8.478 0-16.54-3.671-22.119-10.073-2.721-3.123-2.396-7.86.727-10.582 3.124-2.721 7.86-2.396 10.582.727 2.729 3.132 6.669 4.929 10.81 4.929s8.08-1.796 10.81-4.928c2.72-3.124 7.459-3.448 10.581-.727 3.123 2.721 3.449 7.458.728 10.582-5.579 6.4-13.641 10.072-22.119 10.072z"/><path d="m381 0h-250c-31.706 0-57.5 25.794-57.5 57.5v397c0 31.706 25.794 57.5 57.5 57.5h199.59c4.143 0 7.5-3.358 7.5-7.5s-3.357-7.5-7.5-7.5h-199.59c-23.435 0-42.5-19.065-42.5-42.5v-397c0-23.435 19.065-42.5 42.5-42.5h250c23.435 0 42.5 19.065 42.5 42.5v397c0 23.435-19.065 42.5-42.5 42.5h-22.411c-4.143 0-7.5 3.358-7.5 7.5s3.357 7.5 7.5 7.5h22.411c31.706 0 57.5-25.794 57.5-57.5v-397c0-31.706-25.794-57.5-57.5-57.5z"/><path d="m398.5 404.5v-347c0-9.649-7.851-17.5-17.5-17.5h-250c-9.649 0-17.5 7.851-17.5 17.5v110.761c0 4.142 3.358 7.5 7.5 7.5s7.5-3.358 7.5-7.5v-110.761c0-1.378 1.122-2.5 2.5-2.5h250c1.379 0 2.5 1.122 2.5 2.5v347c0 1.378-1.121 2.5-2.5 2.5h-250c-1.378 0-2.5-1.122-2.5-2.5v-208.239c0-4.142-3.358-7.5-7.5-7.5s-7.5 3.358-7.5 7.5v208.239c0 9.649 7.851 17.5 17.5 17.5h250c9.649 0 17.5-7.851 17.5-17.5z"/><path d="m228.5 459.5c0 15.164 12.336 27.5 27.5 27.5 15.163 0 27.5-12.336 27.5-27.5s-12.337-27.5-27.5-27.5c-15.164 0-27.5 12.336-27.5 27.5zm40 0c0 6.893-5.607 12.5-12.5 12.5s-12.5-5.607-12.5-12.5 5.607-12.5 12.5-12.5 12.5 5.607 12.5 12.5z"/></svg>